<?xml version="1.0" encoding="UTF-8" standalone="no"?>
<!-- Created with Inkscape (http://www.inkscape.org/) -->

<svg
   version="1.1"
   id="svg1"
   width="248.31906"
   height="200.90932"
   viewBox="0 0 248.31907 200.90932"
   sodipodi:docname="hand_both.svg"
   inkscape:version="1.3 (1:1.3+202307231459+0e150ed6c4)"
   xml:space="preserve"
   xmlns:inkscape="http://www.inkscape.org/namespaces/inkscape"
   xmlns:sodipodi="http://sodipodi.sourceforge.net/DTD/sodipodi-0.dtd"
   xmlns="http://www.w3.org/2000/svg"
   xmlns:svg="http://www.w3.org/2000/svg"><defs
     id="defs1" /><sodipodi:namedview
     id="namedview1"
     pagecolor="#505050"
     bordercolor="#eeeeee"
     borderopacity="1"
     inkscape:showpageshadow="0"
     inkscape:pageopacity="0"
     inkscape:pagecheckerboard="0"
     inkscape:deskcolor="#d1d1d1"
     inkscape:zoom="2.9528779"
     inkscape:cx="164.5852"
     inkscape:cy="253.3122"
     inkscape:window-width="3840"
     inkscape:window-height="2096"
     inkscape:window-x="1080"
     inkscape:window-y="27"
     inkscape:window-maximized="1"
     inkscape:current-layer="g1"><inkscape:page
       x="0"
       y="0"
       inkscape:label="1"
       id="page1"
       width="248.31908"
       height="200.90932"
       margin="0"
       bleed="0" /></sodipodi:namedview><g
     id="g1"
     inkscape:groupmode="layer"
     inkscape:label="1"
     transform="translate(-2449.7126,-912.75138)"><path
       id="path250"
       d="m 2553.4706,956.12074 c 4,0 7.1333,3.30266 7.1333,7.51866 l -0.013,78.7227 c -0.013,4.2253 -0.64,8.6333 -1.8667,13.092 -3.12,11.48 -4.8,19.2146 -5.3067,29.64 -0.2,3.8106 -0.067,7.7693 0.36,11.7626 0.013,0.037 0.027,0.1787 0.04,0.2187 0.2267,2.2333 -1,4.468 -3.24,5.7067 -4.8666,2.7293 -13.7466,5.9586 -28.56,5.9586 -0.1333,0 -0.2533,0 -0.3866,0 -16.4134,-0.061 -24.8267,-4.4853 -28.3867,-7.1173 -1.6667,-1.2173 -2.6133,-2.9787 -2.6,-4.8387 0,-0.104 -0.013,-0.26 -0.027,-0.364 -0.067,-0.5946 -0.1466,-1.2546 -0.2133,-1.9706 -0.7733,-7.1454 -2.0667,-19.1054 -10.96,-28.4387 -6.3867,-6.9613 -7.68,-22.596 -8.6267,-34.012 -0.4,-4.9453 -0.7333,-8.8533 -1.3866,-11.4227 -0.027,-0.1266 -0.08,-0.248 -0.1334,-0.3693 l -13.8133,-31.80533 c -1.04,-2.49867 -1.1467,-5.02533 -0.28,-6.89867 0.7733,-1.66666 2.3467,-2.89066 4.6933,-3.63466 4.08,-1.3 9.6,4.51066 13.4534,10.42133 l 16.9333,33.26663 c 0.3467,0.6867 1,1.1694 1.76,1.3054 0.96,0.1826 23.8133,4.9586 23.8133,43.192 0,1.36 1.0934,2.4613 2.4534,2.4613 1.36,0 2.4666,-1.1013 2.4666,-2.4613 0,-37.8347 -21.1466,-46.204 -26.6266,-47.7387 l -7.2934,-14.3307 v -67.9173 c 0.013,-2.05466 0.8,-4.00266 2.24,-5.476 1.4,-1.41733 3.2667,-2.20666 5.2267,-2.20666 0.013,0 0.027,0 0.027,0 4.0266,0.016 7.28,3.28133 7.4266,7.44133 v 68.71063 c 0,1.3587 1.0934,2.4614 2.4534,2.4614 1.36,0 2.4666,-1.1027 2.4666,-2.4614 v -79.4053 c 0,-4.112 3.3467,-7.45733 7.4534,-7.45733 4.1066,0 7.4533,3.34533 7.4533,7.45733 v 79.4053 c 0,1.3587 1.1067,2.4614 2.4667,2.4614 1.36,0 2.4533,-1.1027 2.4533,-2.4614 v -71.55996 c 0,-4.112 3.3467,-7.456 7.4667,-7.456 4.08,0 7.2666,3.30266 7.2666,7.52 v 29.612 c -0.013,0.30533 -0.027,0.612 -0.027,0.924 v 40.95996 c 0,1.3587 1.0933,2.46 2.4533,2.4614 v 0 c 1.36,0 2.4667,-1.0974 2.4667,-2.4547 l 0.027,-41.68533 c 0.36,-3.776 3.4934,-6.73733 7.2934,-6.73733 z m -71.5334,-20.06267 v 58.25867 l -4.2666,-8.376 c -0.027,-0.0747 -0.08,-0.148 -0.12,-0.22 -3.7467,-5.77467 -11.2267,-15.08267 -19.1467,-12.54 -4.6267,1.46933 -6.72,4.212 -7.6667,6.25466 -1.44,3.12267 -1.36,7.092 0.2267,10.89334 l 13.7467,31.65196 c 0.52,2.1987 0.84,6.02 1.2,10.424 1.0133,12.124 2.3866,28.7307 9.9333,36.9667 7.7733,8.1613 8.96,19.0827 9.6667,25.6067 0.067,0.684 0.1333,1.32 0.2133,1.8986 0.027,3.4387 1.7067,6.5934 4.6,8.7107 4.9333,3.6467 14.3733,8.0107 31.2933,8.0733 0.1334,0 0.2667,0 0.3867,0 15.88,0 25.6,-3.5693 30.96,-6.5786 3.9333,-2.1734 6.1867,-6.3587 5.72,-10.6547 0,-0.041 -0.027,-0.1827 -0.027,-0.2253 -0.3866,-3.612 -0.5066,-7.308 -0.32,-10.8627 0.48,-9.9787 2.1067,-17.456 5.1334,-28.588 1.3466,-4.8733 2.0266,-9.712 2.04,-14.3787 l 0.013,-78.7333 c 0,-6.85866 -5.4,-12.44133 -12.0533,-12.44133 -2.7334,0 -5.2534,0.90667 -7.2934,2.43733 v -20.59466 c 0,-6.86 -5.4666,-12.44267 -12.1866,-12.44267 -2.8667,0 -5.5067,0.97867 -7.6134,2.61867 -0.92,-5.91867 -6.0533,-10.46534 -12.2266,-10.46534 -6.8267,0 -12.3734,5.55334 -12.3734,12.38 v 0.85734 c -2.0533,-1.58134 -4.6266,-2.51467 -7.4,-2.52534 -3.2533,-0.02 -6.4266,1.296 -8.7866,3.67867 0,0 -3.6534,3.14933 -3.6534,8.916"
       style="fill:#f9f9f9;fill-opacity:1;fill-rule:nonzero;stroke:none;stroke-width:0.133333" /><path
       id="path250-3"
       d="m 2594.2737,956.12078 c -4,0 -7.1333,3.3026 -7.1333,7.5186 l 0.013,78.72272 c 0.013,4.2253 0.64,8.6333 1.8667,13.092 3.12,11.48 4.8,19.2146 5.3067,29.64 0.2,3.8106 0.067,7.7693 -0.36,11.7626 -0.013,0.037 -0.027,0.1787 -0.04,0.2187 -0.2267,2.2333 1,4.468 3.24,5.7067 4.8666,2.7293 13.7466,5.9586 28.56,5.9586 0.1333,0 0.2533,0 0.3866,0 16.4134,-0.061 24.8267,-4.4853 28.3867,-7.1173 1.6667,-1.2173 2.6133,-2.9787 2.6,-4.8387 0,-0.104 0.013,-0.26 0.027,-0.364 0.067,-0.5946 0.1466,-1.2546 0.2133,-1.9706 0.7733,-7.1454 2.0667,-19.1054 10.96,-28.4387 6.3867,-6.9613 7.68,-22.596 8.6267,-34.012 0.4,-4.9453 0.7333,-8.8533 1.3866,-11.4227 0.027,-0.1266 0.08,-0.248 0.1334,-0.3693 l 13.8133,-31.80536 c 1.04,-2.49866 1.1467,-5.02526 0.28,-6.89866 -0.7733,-1.6666 -2.3467,-2.8906 -4.6933,-3.6346 -4.08,-1.3 -9.6,4.5106 -13.4534,10.42126 l -16.9333,33.26666 c -0.3467,0.6867 -1,1.1694 -1.76,1.3054 -0.96,0.1826 -23.8133,4.9586 -23.8133,43.192 0,1.36 -1.0934,2.4613 -2.4534,2.4613 -1.36,0 -2.4666,-1.1013 -2.4666,-2.4613 0,-37.8347 21.1466,-46.204 26.6266,-47.7387 l 7.2934,-14.3307 v -67.91732 c -0.013,-2.0546 -0.8,-4.0026 -2.24,-5.476 -1.4,-1.4173 -3.2667,-2.2066 -5.2267,-2.2066 -0.013,0 -0.027,0 -0.027,0 -4.0266,0.016 -7.28,3.2813 -7.4266,7.4413 v 68.71062 c 0,1.3587 -1.0934,2.4614 -2.4534,2.4614 -1.36,0 -2.4666,-1.1027 -2.4666,-2.4614 v -79.40532 c 0,-4.112 -3.3467,-7.4573 -7.4534,-7.4573 -4.1066,0 -7.4533,3.3453 -7.4533,7.4573 v 79.40532 c 0,1.3587 -1.1067,2.4614 -2.4667,2.4614 -1.36,0 -2.4533,-1.1027 -2.4533,-2.4614 v -71.55992 c 0,-4.112 -3.3467,-7.456 -7.4667,-7.456 -4.08,0 -7.2666,3.3026 -7.2666,7.52 v 29.612 c 0.013,0.3053 0.027,0.612 0.027,0.924 v 40.95992 c 0,1.3587 -1.0933,2.46 -2.4533,2.4614 v 0 c -1.36,0 -2.4667,-1.0974 -2.4667,-2.4547 l -0.027,-41.68532 c -0.36,-3.776 -3.4934,-6.7373 -7.2934,-6.7373 z m 71.5334,-20.0627 v 58.25866 l 4.2666,-8.37596 c 0.027,-0.075 0.08,-0.148 0.12,-0.22 3.7467,-5.7747 11.2267,-15.0827 19.1467,-12.54 4.6267,1.4693 6.72,4.212 7.6667,6.2546 1.44,3.1227 1.36,7.092 -0.2267,10.89336 l -13.7467,31.65196 c -0.52,2.1987 -0.84,6.02 -1.2,10.424 -1.0133,12.124 -2.3866,28.7307 -9.9333,36.9667 -7.7733,8.1613 -8.96,19.0827 -9.6667,25.6067 -0.067,0.684 -0.1333,1.32 -0.2133,1.8986 -0.027,3.4387 -1.7067,6.5934 -4.6,8.7107 -4.9333,3.6467 -14.3733,8.0107 -31.2933,8.0733 -0.1334,0 -0.2667,0 -0.3867,0 -15.88,0 -25.6,-3.5693 -30.96,-6.5786 -3.9333,-2.1734 -6.1867,-6.3587 -5.72,-10.6547 0,-0.041 0.027,-0.1827 0.027,-0.2253 0.3866,-3.612 0.5066,-7.308 0.32,-10.8627 -0.48,-9.9787 -2.1067,-17.456 -5.1334,-28.588 -1.3466,-4.8733 -2.0266,-9.712 -2.04,-14.3787 l -0.013,-78.73332 c 0,-6.8586 5.4,-12.4413 12.0533,-12.4413 2.7334,0 5.2534,0.9067 7.2934,2.4373 v -20.5946 c 0,-6.86 5.4666,-12.4427 12.1866,-12.4427 2.8667,0 5.5067,0.9787 7.6134,2.6187 0.92,-5.9187 6.0533,-10.4654 12.2266,-10.4654 6.8267,0 12.3734,5.5534 12.3734,12.38 v 0.8574 c 2.0533,-1.5814 4.6266,-2.5147 7.4,-2.5254 3.2533,-0.02 6.4266,1.296 8.7866,3.6787 0,0 3.6534,3.1493 3.6534,8.916"
       style="fill:#f9f9f9;fill-opacity:1;fill-rule:nonzero;stroke:none;stroke-width:0.133333" /></g></svg>
