<?xml version="1.0" encoding="UTF-8" standalone="no"?>
<!-- Created with Inkscape (http://www.inkscape.org/) -->

<svg
   version="1.1"
   id="svg1"
   width="115.81068"
   height="200.90932"
   viewBox="0 0 115.81068 200.90932"
   sodipodi:docname="longest_equal.svg"
   inkscape:version="1.3 (1:1.3+202307231459+0e150ed6c4)"
   xmlns:inkscape="http://www.inkscape.org/namespaces/inkscape"
   xmlns:sodipodi="http://sodipodi.sourceforge.net/DTD/sodipodi-0.dtd"
   xmlns="http://www.w3.org/2000/svg"
   xmlns:svg="http://www.w3.org/2000/svg">
  <defs
     id="defs1" />
  <sodipodi:namedview
     id="namedview1"
     pagecolor="#505050"
     bordercolor="#eeeeee"
     borderopacity="1"
     inkscape:showpageshadow="0"
     inkscape:pageopacity="0"
     inkscape:pagecheckerboard="0"
     inkscape:deskcolor="#d1d1d1"
     inkscape:zoom="16.704"
     inkscape:cx="54.298372"
     inkscape:cy="35.320881"
     inkscape:window-width="3840"
     inkscape:window-height="2096"
     inkscape:window-x="1080"
     inkscape:window-y="27"
     inkscape:window-maximized="1"
     inkscape:current-layer="g1">
    <inkscape:page
       x="0"
       y="0"
       inkscape:label="1"
       id="page1"
       width="115.81068"
       height="200.90932"
       margin="0"
       bleed="0" />
  </sodipodi:namedview>
  <g
     id="g1"
     inkscape:groupmode="layer"
     inkscape:label="1"
     transform="translate(-2449.7126,-912.7514)">
    <path
       id="path250"
       d="m 2553.4706,956.12073 c 4,0 7.1333,3.30266 7.1333,7.51866 l -0.013,78.72271 c -0.013,4.2253 -0.64,8.6333 -1.8667,13.092 -3.12,11.48 -4.8,19.2146 -5.3067,29.64 -0.2,3.8106 -0.067,7.7693 0.36,11.7626 0.013,0.037 0.027,0.1787 0.04,0.2187 0.2267,2.2333 -1,4.468 -3.24,5.7067 -4.8666,2.7293 -13.7466,5.9586 -28.56,5.9586 h -0.3866 c -16.4134,-0.061 -24.8267,-4.4853 -28.3867,-7.1173 -1.6667,-1.2173 -2.6133,-2.9787 -2.6,-4.8387 0,-0.104 -0.013,-0.26 -0.027,-0.364 -0.067,-0.5946 -0.1466,-1.2546 -0.2133,-1.9706 -0.7733,-7.1454 -2.0667,-19.1054 -10.96,-28.4387 -6.3867,-6.9613 -7.68,-22.596 -8.6267,-34.012 -0.4,-4.9453 -0.7333,-8.8533 -1.3866,-11.4227 -0.027,-0.1266 -0.08,-0.248 -0.1334,-0.3693 l -13.8133,-31.80534 c -1.04,-2.49867 -1.1467,-5.02533 -0.28,-6.89867 0.7733,-1.66666 2.3467,-2.89066 4.6933,-3.63466 4.08,-1.3 9.6,4.51066 13.4534,10.42133 l 16.9333,33.26664 c 0.3467,0.6867 1,1.1694 1.76,1.3054 0.96,0.1826 23.8133,4.9586 23.8133,43.192 0,1.36 1.0934,2.4613 2.4534,2.4613 1.36,0 2.4666,-1.1013 2.4666,-2.4613 0,-37.8347 -21.1466,-46.204 -26.6266,-47.7387 l -7.2934,-14.3307 v -65.91731 c 0.013,-2.05466 0.8,-4.00266 2.24,-5.476 1.4,-1.41733 3.2667,-2.20666 5.2267,-2.20666 h 0.027 c 4.0266,0.016 7.28,3.28133 7.4266,7.44133 v 66.71064 c 0,1.3587 1.0934,2.4614 2.4534,2.4614 1.36,0 2.4666,-1.1027 2.4666,-2.4614 v -79.40531 c 0,-4.112 3.3467,-7.45733 7.4534,-7.45733 2.0533,0 3.9166,0.83633 5.2666,2.18666 0.675,0.67517 1.2217,1.97884 1.5996,3.37071 0.3779,1.39188 0.5871,5.70396 0.5871,6.73196 v 74.57331 c 0,1.3587 1.1067,2.4614 2.4667,2.4614 1.36,0 2.4533,-1.1027 2.4533,-2.4614 v -66.72797 c 0,-4.112 3.3467,-7.456 7.4667,-7.456 4.08,0 7.2666,3.30266 7.2666,7.52 v 24.78 c -0.013,0.30533 -0.027,0.612 -0.027,0.924 v 40.95997 c 0,1.3587 1.0933,2.46 2.4533,2.4614 v 0 c 1.36,0 2.4667,-1.0974 2.4667,-2.4547 l 0.027,-41.68534 c 0.36,-3.776 3.4934,-6.73733 7.2934,-6.73733 z m -71.5334,-18.06267 v 56.25867 l -4.2666,-8.376 c -0.027,-0.0747 -0.08,-0.148 -0.12,-0.22 -3.7467,-5.77467 -11.2267,-15.08267 -19.1467,-12.54 -4.6267,1.46933 -6.72,4.212 -7.6667,6.25466 -1.44,3.12267 -1.36,7.092 0.2267,10.89334 l 13.7467,31.65197 c 0.52,2.1987 0.84,6.02 1.2,10.424 1.0133,12.124 2.3866,28.7307 9.9333,36.9667 7.7733,8.1613 8.96,19.0827 9.6667,25.6067 0.067,0.684 0.1333,1.32 0.2133,1.8986 0.027,3.4387 1.7067,6.5934 4.6,8.7107 4.9333,3.6467 14.3733,8.0107 31.2933,8.0733 h 0.3867 c 15.88,0 25.6,-3.5693 30.96,-6.5786 3.9333,-2.1734 6.1867,-6.3587 5.72,-10.6547 0,-0.041 -0.027,-0.1827 -0.027,-0.2253 -0.3866,-3.612 -0.5066,-7.308 -0.32,-10.8627 0.48,-9.9787 2.1067,-17.456 5.1334,-28.588 1.3466,-4.8733 2.0266,-9.712 2.04,-14.3787 l 0.013,-78.73331 c 0,-6.85866 -5.4,-12.44133 -12.0533,-12.44133 -2.7334,0 -5.2534,0.90667 -7.2934,2.43733 v -15.76265 c 0,-6.86 -5.4666,-12.44267 -12.1866,-12.44267 -2.8667,0 -5.5067,0.97866 -7.6134,2.61866 -0.115,-0.73983 -0.2958,-4.41522 -0.5363,-5.29348 -0.2404,-0.87826 -0.5405,-1.79138 -0.8941,-2.67067 -0.7071,-1.75856 -1.6279,-3.38177 -2.7129,-4.32002 -2.17,-1.8765 -4.9967,-3.01317 -8.0833,-3.01317 -6.8267,0 -12.3734,6.54557 -12.3734,12.38 v 2.85734 c -2.0533,-1.58134 -4.6266,-2.51467 -7.4,-2.52534 -3.2533,-0.02 -6.4266,1.296 -8.7866,3.67867 0,0 -3.6534,3.14933 -3.6534,8.916"
       style="fill:#f9f9f9;fill-opacity:1;fill-rule:nonzero;stroke:none;stroke-width:0.133333"
       sodipodi:nodetypes="ccccccccscccccccccccccccsssccccsccsssssssssssssscssssccccccccccccccccccscccccccscsscssssscccc" />
    <path
       style="fill:#f9f9f9;stroke:#f9f9f9;stroke-width:4;stroke-linecap:butt;stroke-linejoin:miter;stroke-dasharray:none;stroke-opacity:1"
       d="m 2473.5732,923.5514 h 79.9278"
       id="path252" />
  </g>
</svg>
