<?xml version="1.0" encoding="UTF-8" standalone="no"?>
<svg
   viewBox="0 0 24 24"
   version="1.1"
   id="svg6"
   sodipodi:docname="icon.svg"
   inkscape:version="1.2.2 (1:1.2.2+202305151914+b0a8486541)"
   xmlns:inkscape="http://www.inkscape.org/namespaces/inkscape"
   xmlns:sodipodi="http://sodipodi.sourceforge.net/DTD/sodipodi-0.dtd"
   xmlns="http://www.w3.org/2000/svg"
   xmlns:svg="http://www.w3.org/2000/svg">
  <defs
     id="defs10" />
  <sodipodi:namedview
     id="namedview8"
     pagecolor="#505050"
     bordercolor="#eeeeee"
     borderopacity="1"
     inkscape:showpageshadow="0"
     inkscape:pageopacity="0"
     inkscape:pagecheckerboard="0"
     inkscape:deskcolor="#505050"
     showgrid="false"
     inkscape:zoom="42.791667"
     inkscape:cx="9.0087634"
     inkscape:cy="12.023369"
     inkscape:window-width="3840"
     inkscape:window-height="2096"
     inkscape:window-x="1080"
     inkscape:window-y="27"
     inkscape:window-maximized="1"
     inkscape:current-layer="svg6" />
  <path
     d="m0 0h24v24h-24z"
     fill="none"
     id="path2" />
  <g
     id="g1053"
     style="fill:#2196f3;fill-opacity:1">
    <path
       d="m 12.906289,15.125985 v 1.861414 C 9.4286252,15.757859 5.7805533,18.337958 5.7812578,22.026577 L 4,22.025687 C 3.99882,17.36693 8.3954678,13.960405 12.906289,15.125094 Z m 4.084424,2.447448 -1.628961,-1.62807 1.260241,-1.26024 3.778048,3.778938 -3.778048,3.778939 -1.260241,-1.26024 1.628961,-1.62807 h -3.193795 v -1.781257 z"
       id="path4"
       style="stroke-width:0;stroke-dasharray:none;fill:#2196f3;fill-opacity:1"
       sodipodi:nodetypes="cccccccccccccccc" />
    <path
       d="m 15.018173,8.3620165 c -1.096359,0 -2.015886,0.7839556 -2.251663,1.8272665 -0.559968,-0.2416709 -1.072781,-0.176833 -1.461812,-0.0059 -0.241672,-1.0491889 -1.161199,-1.8213559 -2.2516641,-1.8213559 -1.279085,0 -2.322395,1.055099 -2.322395,2.3577619 0,1.302664 1.04331,2.357762 2.322395,2.357762 1.2142481,0 2.2045081,-0.954893 2.2988191,-2.16914 0.20041,-0.141466 0.725012,-0.406715 1.367502,0.01179 0.106099,1.208354 1.084571,2.157353 2.298818,2.157353 1.279086,0 2.322396,-1.055099 2.322396,-2.357762 0,-1.3026639 -1.04331,-2.3577621 -2.322396,-2.3577621 M 9.0530339,12.405607 c -0.919527,0 -1.656328,-0.754483 -1.656328,-1.685799 0,-0.9313159 0.742696,-1.6858009 1.656328,-1.6858009 0.9195284,0 1.6563281,0.754485 1.6563281,1.6858009 0,0.931316 -0.7367997,1.685799 -1.6563281,1.685799 m 5.9651391,0 c -0.919528,0 -1.656328,-0.754483 -1.656328,-1.685799 0,-0.9313159 0.7368,-1.6858009 1.656328,-1.6858009 0.919527,0 1.662222,0.754485 1.662222,1.6858009 0,0.931316 -0.748589,1.685799 -1.662222,1.685799 M 17.930009,6.8884148 H 6.1411979 V 7.7725757 H 17.930009 Z M 14.116329,2.2495179 C 13.986652,1.9606921 13.656565,1.8074375 13.344162,1.9076424 l -1.308558,0.436186 -1.314453,-0.436186 -0.02947,-0.00589 C 10.379273,1.8133334 10.049187,1.9783764 9.9312989,2.2789919 L 8.4989609,6.004256 H 15.572247 L 14.134013,2.278992 Z"
       id="path239"
       style="stroke-width:0.589441;fill:#2196f3;fill-opacity:1" />
  </g>
</svg>
